<?xml version="1.0" encoding="UTF-8" standalone="no"?>
<!-- Created with Inkscape (http://www.inkscape.org/) -->
<svg
   xmlns:dc="http://purl.org/dc/elements/1.1/"
   xmlns:cc="http://web.resource.org/cc/"
   xmlns:rdf="http://www.w3.org/1999/02/22-rdf-syntax-ns#"
   xmlns:svg="http://www.w3.org/2000/svg"
   xmlns="http://www.w3.org/2000/svg"
   xmlns:sodipodi="http://sodipodi.sourceforge.net/DTD/sodipodi-0.dtd"
   xmlns:inkscape="http://www.inkscape.org/namespaces/inkscape"
   width="16"
   height="16"
   id="svg2"
   sodipodi:version="0.32"
   inkscape:version="0.45.1"
   version="1.0"
   sodipodi:docbase="C:\SVN\BoxSocial\GDK"
   sodipodi:docname="rotate_right.svg"
   inkscape:output_extension="org.inkscape.output.svg.inkscape">
  <defs
     id="defs4" />
  <sodipodi:namedview
     id="base"
     pagecolor="#ffffff"
     bordercolor="#666666"
     borderopacity="1.0"
     gridtolerance="10000"
     guidetolerance="10"
     objecttolerance="10"
     inkscape:pageopacity="0.0"
     inkscape:pageshadow="2"
     inkscape:zoom="34.296751"
     inkscape:cx="8.3795922"
     inkscape:cy="9.2200517"
     inkscape:document-units="px"
     inkscape:current-layer="layer1"
     width="16px"
     height="16px"
     inkscape:window-width="1440"
     inkscape:window-height="850"
     inkscape:window-x="1272"
     inkscape:window-y="-8" />
  <metadata
     id="metadata7">
    <rdf:RDF>
      <cc:Work
         rdf:about="">
        <dc:format>image/svg+xml</dc:format>
        <dc:type
           rdf:resource="http://purl.org/dc/dcmitype/StillImage" />
      </cc:Work>
    </rdf:RDF>
  </metadata>
  <g
     inkscape:label="Layer 1"
     inkscape:groupmode="layer"
     id="layer1">
    <path
       style="fill:#aaccff;fill-opacity:1;fill-rule:evenodd;stroke:#003380;stroke-width:0.70481741;stroke-linecap:round;stroke-linejoin:round;stroke-miterlimit:4;stroke-opacity:1"
       d="M 8.0000001,3.3212426 C 8,3.3212426 8,3.3212426 8,3.3212426 C 5.1195082,3.3212426 2.7817176,5.6595673 2.7817176,8.5407173 C 2.7817176,11.421867 5.1195082,13.760192 8,13.760192 C 10.880492,13.760192 13.218283,11.421867 13.218283,8.5407173 C 13.567388,7.5800778 14.793751,7.5582328 15.074255,8.5188724 M 15.105251,8.5407172 C 15.105251,12.463712 11.922099,15.647591 7.9999999,15.647591 C 4.0779016,15.647591 0.89474902,12.463712 0.89474902,8.5407172 C 0.89474902,4.6177226 4.0779016,1.4338429 7.9999999,1.4338429 C 8,1.4338429 8,1.4338429 8.0000001,1.4338429 L 8.0000001,0.35240868 L 10.092344,2.4452305 L 7.9968736,4.5193346 L 8,3.3232035"
       id="path2162"
       sodipodi:nodetypes="cssccccscsccccc" />
  </g>
</svg>
