<?xml version="1.0" encoding="UTF-8" standalone="no"?>
<!-- Created with Inkscape (http://www.inkscape.org/) -->

<svg
   xmlns:dc="http://purl.org/dc/elements/1.1/"
   xmlns:cc="http://creativecommons.org/ns#"
   xmlns:rdf="http://www.w3.org/1999/02/22-rdf-syntax-ns#"
   xmlns:svg="http://www.w3.org/2000/svg"
   xmlns="http://www.w3.org/2000/svg"
   xmlns:sodipodi="http://sodipodi.sourceforge.net/DTD/sodipodi-0.dtd"
   xmlns:inkscape="http://www.inkscape.org/namespaces/inkscape"
   width="5456.6929"
   height="496.06299"
   id="svg2"
   version="1.1"
   inkscape:version="0.48.5 r10040"
   sodipodi:docname="mobile-symbols.svg"
   inkscape:export-filename="D:\Hg\Boxsoci.al\mobile-symbols-48@2x.png"
   inkscape:export-xdpi="15.965714"
   inkscape:export-ydpi="15.965714">
  <defs
     id="defs4" />
  <sodipodi:namedview
     id="base"
     pagecolor="#000000"
     bordercolor="#666666"
     borderopacity="1.0"
     inkscape:pageopacity="0"
     inkscape:pageshadow="2"
     inkscape:zoom="0.31613036"
     inkscape:cx="1400.1138"
     inkscape:cy="321.67511"
     inkscape:document-units="px"
     inkscape:current-layer="layer1"
     showgrid="false"
     inkscape:window-width="1440"
     inkscape:window-height="900"
     inkscape:window-x="-8"
     inkscape:window-y="-8"
     inkscape:window-maximized="1"
     units="mm"
     fit-margin-top="0"
     fit-margin-left="0"
     fit-margin-right="0"
     fit-margin-bottom="0" />
  <metadata
     id="metadata7">
    <rdf:RDF>
      <cc:Work
         rdf:about="">
        <dc:format>image/svg+xml</dc:format>
        <dc:type
           rdf:resource="http://purl.org/dc/dcmitype/StillImage" />
        <dc:title />
      </cc:Work>
    </rdf:RDF>
  </metadata>
  <g
     inkscape:label="Layer 1"
     inkscape:groupmode="layer"
     id="layer1"
     transform="translate(-34.215412,-425.03941)">
    <path
       id="path2985-1-9-1-2-6-7-9"
       style="fill:#ffffff;fill-rule:evenodd;stroke:#ffffff;stroke-width:3.54330707;stroke-linecap:butt;stroke-linejoin:round;stroke-miterlimit:4;stroke-opacity:1"
       d="m 326.53823,761.65353 8.85827,-17.71653 8.85827,-17.71654 -17.71654,0 -17.71653,0 8.85826,17.71654 z m 17.71653,35.43302 8.85827,-17.71653 8.85827,-17.71654 -17.71654,0 -17.71653,0 8.85826,17.71654 z m 0,-70.86612 -8.85827,17.71653 -8.85827,17.71654 17.71654,0 17.71654,0 -8.85827,-17.71654 z m 17.71653,35.43309 -8.85827,17.71653 -8.85827,17.71654 17.71654,0 17.71653,0 -8.85825,-17.71654 z m -35.43304,-70.86614 8.85827,17.71653 8.85828,17.71654 -17.71655,0 -17.71653,0 8.85826,-17.71654 z m -17.71654,35.43307 -8.85827,-17.71653 -8.85827,-17.71654 17.71654,0 17.71653,0 -8.85826,17.71654 z m 35.43307,-70.86614 -8.85827,-17.71653 -8.85827,-17.71654 17.71654,0 17.71653,0 -8.85826,17.71654 z m -17.71653,35.43307 -8.85827,-17.71653 -8.85827,-17.71654 17.71654,0 17.71653,0 -8.85826,17.71654 z m 0,-70.86617 8.85827,17.71653 8.85827,17.71654 -17.71654,0 -17.71653,0 8.85826,-17.71654 z m -17.71654,35.43307 8.85827,17.71653 8.85827,17.71653 -17.71654,0 -17.71653,0 8.85826,-17.71653 z m -17.71653,35.4331 -8.85827,-17.71653 -8.85827,-17.71654 17.71654,0 17.71653,0 -8.85826,17.71654 z m -17.71655,-35.4331 8.85827,17.71653 8.85827,17.71653 -17.71654,0 -17.71653,0 8.85826,-17.71653 z m -17.71652,35.4331 -8.85827,-17.71653 -8.85827,-17.71654 17.71654,0 17.71653,0 -8.85826,17.71654 z m 88.58267,-106.29921 8.85827,17.71653 8.85827,17.71654 -17.71654,0 -17.71653,0 8.85826,-17.71654 z m -17.71653,35.43307 -8.85827,-17.71653 -8.85827,-17.71654 17.71654,0 17.71653,0 -8.85826,17.71654 z m -88.58268,35.43304 8.85826,17.71653 8.85827,17.71653 -17.71653,0 -17.71654,0 8.85826,-17.71653 z m -17.71653,35.4331 -8.85827,-17.71653 -8.85827,-17.71654 17.71654,0 17.71653,0 -8.85826,17.71654 z m 0,-70.86617 8.85826,17.71653 8.85827,17.71654 -17.71653,0 -17.71654,0 8.85827,-17.71654 z m -17.71654,35.4331 -8.85827,-17.71653 -8.85826,-17.71654 17.71653,0 17.71653,0 -8.85826,17.71654 z m 0,-70.86614 8.85826,17.71653 8.85827,17.71654 -17.71653,0 -17.71654,0 8.85827,-17.71654 z m 124.01575,-35.43307 8.85827,17.71653 8.85827,17.71653 -17.71654,0 -17.71653,0 8.85826,-17.71653 z m -17.71654,35.43307 -8.85827,-17.71653 -8.85827,-17.71654 17.71654,0 17.71653,0 -8.85826,17.71654 z m -17.71653,-35.43307 8.85827,17.71653 8.85827,17.71653 -17.71654,0 -17.71653,0 8.85826,-17.71653 z m -70.86614,70.86614 -8.85827,-17.71653 -8.85827,-17.71654 17.71654,0 17.71653,0 -8.85826,17.71654 z m 53.1496,-35.43307 -8.85827,-17.71653 -8.85827,-17.71654 17.71654,0 17.71653,0 -8.85826,17.71654 z m -17.71654,-35.43307 8.85827,17.71653 8.85827,17.71653 -17.71654,0 -17.71653,0 8.85826,-17.71653 z m -17.71653,35.43307 -8.85827,-17.71653 -8.85827,-17.71654 17.71654,0 17.71653,0 -8.85826,17.71654 z m -17.71653,-35.43307 8.85826,17.71653 8.85827,17.71653 -17.71653,0 -17.71654,0 8.85827,-17.71653 z"
       inkscape:connector-curvature="0" />
    <path
       id="path2985-1-0-8-3-8-3-5-4-3"
       style="fill:#ffffff;fill-rule:evenodd;stroke:#ffffff;stroke-width:3.54330707;stroke-linecap:butt;stroke-linejoin:round;stroke-miterlimit:4;stroke-opacity:1"
       d="m 787.16816,655.35433 8.85827,-17.71653 8.85827,-17.71654 -17.71654,0 -17.71653,0 8.85826,17.71654 z m 17.71653,-35.43312 -8.85827,17.71653 -8.85827,17.71654 17.71654,0 17.71654,0 -8.85827,-17.71654 z m 0,70.86619 8.85827,-17.71653 8.85827,-17.71654 -17.71654,0 -17.71653,0 8.85826,17.71654 z m 17.71654,-35.43312 -8.85827,17.71653 -8.85827,17.71653 17.71654,0 17.71653,0 -8.85826,-17.71653 z m 0,70.86619 8.85827,-17.71653 8.85827,-17.71654 -17.71654,0 -17.71653,0 8.85826,17.71654 z m 17.71653,-35.43312 -8.85827,17.71653 -8.85827,17.71654 17.71654,0 17.71653,0 -8.85826,-17.71654 z m 17.71653,106.2992 8.85827,-17.71653 8.85827,-17.71654 -17.71654,0 -17.71653,0 8.85826,17.71654 z m 2e-5,-70.86609 8.85827,17.71653 8.85827,17.71654 -17.71654,0 -17.71653,0 8.85826,-17.71654 z m -17.71654,35.43307 -8.85827,-17.71653 -8.85827,-17.71654 17.71654,0 17.71654,0 -8.85827,17.71654 z m -10e-6,-212.59841 8.85827,17.71653 8.85827,17.71654 -17.71654,0 -17.71653,0 8.85826,-17.71654 z m 17.71648,35.43307 -8.85827,-17.71653 -8.85827,-17.71654 17.71654,0 17.71654,0 -8.85827,17.71654 z m -53.14955,-35.43307 8.85827,17.71653 8.85827,17.71654 -17.71654,0 -17.71653,0 8.85826,-17.71654 z m 17.71648,35.43307 -8.85827,-17.71653 -8.85827,-17.71654 17.71654,0 17.71653,0 -8.85826,17.71654 z m -53.14955,-35.43307 8.85827,17.71653 8.85827,17.71654 -17.71654,0 -17.71653,0 8.85826,-17.71654 z m 17.71648,35.43307 -8.85827,-17.71653 -8.85827,-17.71654 17.71654,0 17.71653,0 -8.85826,17.71654 z m -17.71648,106.29921 8.85827,17.71653 8.85827,17.71654 -17.71654,0 -17.71653,0 8.85826,-17.71654 z m 17.71648,35.43307 -8.85827,-17.71653 -8.85827,-17.71654 17.71654,0 17.71653,0 -8.85826,17.71654 z m -53.14955,-35.43307 8.85827,17.71653 8.85827,17.71654 -17.71654,0 -17.71653,0 8.85826,-17.71654 z m 17.71648,35.43307 -8.85827,-17.71653 -8.85827,-17.71654 17.71654,0 17.71653,0 -8.85826,17.71654 z m -53.14955,-35.43306 8.85827,17.71653 8.85827,17.71653 -17.71654,0 -17.71653,0 8.85826,-17.71653 z m 17.71649,35.43305 -8.85827,-17.71653 -8.85827,-17.71654 17.71654,0 17.71653,0 -8.85826,17.71654 z m 177.16535,-141.73227 -8.85827,-17.71653 -8.85827,-17.71654 17.71654,0 17.71654,0 -8.85827,17.71654 z m -17.71649,-35.43307 8.85827,17.71653 8.85827,17.71654 -17.71654,0 -17.71653,0 8.85826,-17.71654 z m -124.01581,35.43307 -8.85827,-17.71653 -8.85827,-17.71654 17.71654,0 17.71653,0 -8.85826,17.71654 z m -17.71649,-35.43307 8.85827,17.71653 8.85827,17.71654 -17.71654,0 -17.71653,0 8.85826,-17.71654 z m 106.29916,70.86617 8.85827,17.71653 8.85827,17.71653 -17.71654,0 -17.71653,0 8.85826,-17.71653 z m 17.71658,35.43307 -8.85827,-17.71653 -8.85827,-17.71654 17.71654,0 17.71653,0 -8.85826,17.71654 z m 17.7165,-35.43307 -8.85827,-17.71653 -8.85827,-17.71654 17.71654,0 17.71653,0 -8.85826,17.71654 z m -17.71648,-35.43307 8.85827,17.71653 8.85827,17.71654 -17.71654,0 -17.71653,0 8.85826,-17.71654 z m -159.44888,35.43304 8.85827,17.71653 8.85827,17.71654 -17.71654,0 -17.71653,0 8.85826,-17.71654 z m 17.71658,35.43307 -8.85827,-17.71653 -8.85827,-17.71654 17.71654,0 17.71653,0 -8.85826,17.71654 z m 17.7165,-35.43307 -8.85827,-17.71653 -8.85827,-17.71654 17.71654,0 17.71653,0 -8.85826,17.71654 z m -17.71648,-35.43307 8.85827,17.71653 8.85827,17.71654 -17.71654,0 -17.71653,0 8.85826,-17.71654 z m -53.1496,106.29921 8.85827,17.71653 8.85827,17.71654 -17.71654,0 -17.71653,0 8.85826,-17.71654 z m 17.71648,35.43307 -8.85827,-17.71653 -8.85827,-17.71654 17.71654,0 17.71653,0 -8.85826,17.71654 z m 17.7165,-35.43307 -8.85827,-17.71653 -8.85827,-17.71654 17.71654,0 17.71653,0 -8.85826,17.71654 z m -17.71648,-35.43307 8.85827,17.71653 8.85827,17.71654 -17.71654,0 -17.71654,0 8.85827,-17.71654 z"
       inkscape:connector-curvature="0" />
    <path
       id="path2985-4-2-3-7-4-8-4-2-6-1-50"
       style="fill:#ffffff;fill-rule:evenodd;stroke:#ffffff;stroke-width:3.54330707;stroke-linecap:butt;stroke-linejoin:round;stroke-miterlimit:4;stroke-opacity:1;stroke-dasharray:none"
       d="m 1212.365,761.65353 8.8583,17.71653 8.8583,17.71654 -17.7166,0 -17.7165,0 8.8582,-17.71654 z m 17.7165,35.43302 -8.8583,-17.71653 -8.8582,-17.71654 17.7165,0 17.7165,0 -8.8582,17.71654 z m -53.1496,-35.43303 8.8583,17.71653 8.8583,17.71654 -17.7166,0 -17.7165,0 8.8583,-17.71654 z m 17.7165,35.43303 -8.8582,-17.71653 -8.8583,-17.71654 17.7165,0 17.7166,0 -8.8583,17.71654 z m 159.4489,-35.43302 8.8583,17.71653 8.8582,17.71654 -17.7165,0 -17.7165,0 8.8582,-17.71654 z m 17.7165,35.43302 -8.8583,-17.71653 -8.8583,-17.71654 17.7166,0 17.7165,0 -8.8583,17.71654 z m -53.1496,-35.43302 8.8583,17.71653 8.8582,17.71654 -17.7165,0 -17.7165,0 8.8582,-17.71654 z m 17.7165,35.43302 -8.8583,-17.71653 -8.8583,-17.71654 17.7166,0 17.7165,0 -8.8583,17.71654 z m -53.1496,-35.43302 8.8583,17.71653 8.8582,17.71654 -17.7165,0 -17.7165,0 8.8582,-17.71654 z m 17.7165,35.43302 -8.8583,-17.71653 -8.8583,-17.71654 17.7166,0 17.7165,0 -8.8583,17.71654 z m -35.433,0 -8.8583,-17.71653 -8.8583,-17.71654 17.7166,0 17.7165,0 -8.8583,17.71654 z m -17.7165,-35.43302 8.8583,17.71653 8.8582,17.71654 -17.7165,0 -17.7165,0 8.8582,-17.71654 z m -35.4331,-70.86614 8.8583,17.71653 8.8583,17.71654 -17.7166,0 -17.7165,0 8.8582,-17.71654 z m 17.7165,35.43305 -8.8583,-17.71653 -8.8583,-17.71654 17.7166,0 17.7165,0 -8.8582,17.71654 z m -53.1496,-35.43306 8.8583,17.71653 8.8583,17.71654 -17.7166,0 -17.7165,0 8.8583,-17.71654 z m 17.7165,35.43307 -8.8582,-17.71653 -8.8583,-17.71654 17.7165,0 17.7166,0 -8.8583,17.71654 z m 159.4489,-35.43306 8.8582,17.71653 8.8583,17.71654 -17.7165,0 -17.7165,0 8.8582,-17.71654 z m 17.7165,35.43307 -8.8583,-17.71653 -8.8583,-17.71654 17.7166,0 17.7165,0 -8.8583,17.71654 z m -53.1496,-35.43307 8.8583,17.71653 8.8582,17.71654 -17.7165,0 -17.7165,0 8.8582,-17.71654 z m 17.7165,35.43307 -8.8583,-17.71653 -8.8583,-17.71654 17.7166,0 17.7165,0 -8.8583,17.71654 z m -53.1496,-35.43307 8.8583,17.71653 8.8582,17.71654 -17.7165,0 -17.7165,0 8.8582,-17.71654 z m 17.7165,35.43307 -8.8583,-17.71653 -8.8583,-17.71654 17.7166,0 17.7165,0 -8.8583,17.71654 z m -35.433,0 -8.8583,-17.71653 -8.8583,-17.71654 17.7166,0 17.7165,0 -8.8583,17.71654 z m -17.7165,-35.43307 8.8583,17.71653 8.8582,17.71654 -17.7165,0 -17.7165,0 8.8582,-17.71654 z m -35.4331,-70.86614 8.8583,17.71653 8.8583,17.71654 -17.7166,0 -17.7165,0 8.8582,-17.71654 z m 17.7165,35.43305 -8.8583,-17.71653 -8.8582,-17.71654 17.7165,0 17.7165,0 -8.8582,17.71654 z m -53.1496,-35.43306 8.8583,17.71653 8.8583,17.71654 -17.7166,0 -17.7165,0 8.8583,-17.71654 z m 17.7165,35.43307 -8.8582,-17.71653 -8.8583,-17.71654 17.7165,0 17.7166,0 -8.8583,17.71654 z m 159.4489,-35.43306 8.8583,17.71653 8.8582,17.71654 -17.7165,0 -17.7165,0 8.8582,-17.71654 z m 17.7165,35.43307 -8.8583,-17.71653 -8.8583,-17.71654 17.7166,0 17.7165,0 -8.8583,17.71654 z m -53.1496,-35.43307 8.8583,17.71653 8.8582,17.71654 -17.7165,0 -17.7165,0 8.8582,-17.71654 z m 17.7165,35.43307 -8.8583,-17.71653 -8.8583,-17.71654 17.7166,0 17.7165,0 -8.8583,17.71654 z m -53.1496,-35.43307 8.8583,17.71653 8.8582,17.71654 -17.7165,0 -17.7165,0 8.8582,-17.71654 z m 17.7165,35.43307 -8.8583,-17.71653 -8.8583,-17.71654 17.7166,0 17.7165,0 -8.8583,17.71654 z m -35.433,0 -8.8583,-17.71653 -8.8583,-17.71654 17.7166,0 17.7165,0 -8.8583,17.71654 z m -17.7165,-35.43307 8.8583,17.71653 8.8582,17.71654 -17.7165,0 -17.7165,0 8.8582,-17.71654 z m -35.4331,-70.86614 8.8583,17.71653 8.8583,17.71654 -17.7166,0 -17.7165,0 8.8582,-17.71654 z m 17.7165,35.43305 -8.8583,-17.71653 -8.8582,-17.71654 17.7165,0 17.7165,0 -8.8582,17.71654 z m -53.1496,-35.43306 8.8583,17.71653 8.8583,17.71654 -17.7166,0 -17.7165,0 8.8583,-17.71654 z m 17.7165,35.43307 -8.8582,-17.71653 -8.8583,-17.71654 17.7165,0 17.7166,0 -8.8583,17.71654 z m 159.4489,-35.43306 8.8583,17.71653 8.8582,17.71654 -17.7165,0 -17.7165,0 8.8582,-17.71654 z m 17.7165,35.43307 -8.8583,-17.71653 -8.8583,-17.71654 17.7166,0 17.7165,0 -8.8583,17.71654 z m -53.1496,-35.43307 8.8583,17.71653 8.8582,17.71654 -17.7165,0 -17.7165,0 8.8582,-17.71654 z m 17.7165,35.43307 -8.8583,-17.71653 -8.8583,-17.71654 17.7166,0 17.7165,0 -8.8583,17.71654 z m -53.1496,-35.43307 8.8583,17.71653 8.8582,17.71654 -17.7165,0 -17.7165,0 8.8582,-17.71654 z m 17.7165,35.43307 -8.8583,-17.71653 -8.8583,-17.71654 17.7166,0 17.7165,0 -8.8583,17.71654 z m -35.433,0 -8.8583,-17.71653 -8.8583,-17.71654 17.7166,0 17.7165,0 -8.8583,17.71654 z m -17.7165,-35.43307 8.8583,17.71653 8.8582,17.71654 -17.7165,0 -17.7165,0 8.8582,-17.71654 z"
       inkscape:connector-curvature="0" />
    <path
       style="fill:#ffffff;fill-rule:evenodd;stroke:#ffffff;stroke-width:3.54330707;stroke-linejoin:bevel;stroke-miterlimit:4;stroke-opacity:1;stroke-dasharray:none"
       d="m 2337.3652,566.77167 8.8583,17.71654 8.8583,17.71654 -17.7166,0 -17.7165,0 8.8583,-17.71654 z"
       id="path3049"
       inkscape:connector-curvature="0" />
    <path
       style="fill:#ffffff;fill-rule:evenodd;stroke:#ffffff;stroke-width:3.54330707;stroke-linejoin:bevel;stroke-miterlimit:4;stroke-opacity:1;stroke-dasharray:none"
       d="m 2355.0817,673.0709 -8.8582,-17.71653 -8.8583,-17.71654 17.7165,0 17.7166,0 -8.8583,17.71654 z"
       id="path3047"
       inkscape:connector-curvature="0" />
    <path
       style="fill:#ffffff;fill-rule:evenodd;stroke:#ffffff;stroke-width:3.54330707;stroke-linejoin:bevel;stroke-miterlimit:4;stroke-opacity:1;stroke-dasharray:none"
       d="m 2337.3652,637.63783 8.8583,17.71653 8.8583,17.71654 -17.7166,0 -17.7165,0 8.8583,-17.71654 z"
       id="path3045"
       inkscape:connector-curvature="0" />
    <path
       style="fill:#ffffff;fill-rule:evenodd;stroke:#ffffff;stroke-width:3.54330707;stroke-linejoin:bevel;stroke-miterlimit:4;stroke-opacity:1;stroke-dasharray:none"
       d="m 2337.3651,637.63782 -8.8582,-17.71653 -8.8583,-17.71654 17.7165,0 17.7166,0 -8.8583,17.71654 z"
       id="path3043"
       inkscape:connector-curvature="0" />
    <path
       style="fill:#ffffff;fill-rule:evenodd;stroke:#ffffff;stroke-width:3.54330707;stroke-linejoin:bevel;stroke-miterlimit:4;stroke-opacity:1;stroke-dasharray:none"
       d="m 2355.0817,602.20476 8.8583,17.71653 8.8583,17.71654 -17.7166,0 -17.7165,0 8.8582,-17.71654 z"
       id="path3041"
       inkscape:connector-curvature="0" />
    <path
       style="fill:#ffffff;fill-rule:evenodd;stroke:#ffffff;stroke-width:3.54330707;stroke-linejoin:bevel;stroke-miterlimit:4;stroke-opacity:1;stroke-dasharray:none"
       d="m 2337.3651,708.50396 -8.8582,-17.71653 -8.8583,-17.71654 17.7165,0 17.7166,0 -8.8583,17.71654 z"
       id="path3039"
       inkscape:connector-curvature="0" />
    <path
       style="fill:#ffffff;fill-rule:evenodd;stroke:#ffffff;stroke-width:3.54330707;stroke-linejoin:bevel;stroke-miterlimit:4;stroke-opacity:1;stroke-dasharray:none"
       d="m 2319.6486,673.07089 8.8583,17.71653 8.8583,17.71654 -17.7166,0 -17.7165,0 8.8583,-17.71654 z"
       id="path3037"
       inkscape:connector-curvature="0" />
    <path
       style="fill:#ffffff;fill-rule:evenodd;stroke:#ffffff;stroke-width:3.54330707;stroke-linejoin:bevel;stroke-miterlimit:4;stroke-opacity:1;stroke-dasharray:none"
       d="m 2284.2155,602.20476 -8.8583,-17.71653 -8.8583,-17.71655 17.7166,0 17.7165,0 -8.8583,17.71655 z"
       id="path3035"
       inkscape:connector-curvature="0" />
    <path
       style="fill:#ffffff;fill-rule:evenodd;stroke:#ffffff;stroke-width:3.54330707;stroke-linejoin:bevel;stroke-miterlimit:4;stroke-opacity:1;stroke-dasharray:none"
       d="m 2266.499,566.77168 8.8583,17.71654 8.8582,17.71654 -17.7165,0 -17.7165,0 8.8582,-17.71654 z"
       id="path3033"
       inkscape:connector-curvature="0" />
    <path
       style="fill:#ffffff;fill-rule:evenodd;stroke:#ffffff;stroke-width:3.54330707;stroke-linejoin:bevel;stroke-miterlimit:4;stroke-opacity:1;stroke-dasharray:none"
       d="m 2319.6486,602.20476 -8.8583,-17.71653 -8.8583,-17.71655 17.7166,0 17.7165,0 -8.8583,17.71655 z"
       id="path3031"
       inkscape:connector-curvature="0" />
    <path
       style="fill:#ffffff;fill-rule:evenodd;stroke:#ffffff;stroke-width:3.54330707;stroke-linejoin:bevel;stroke-miterlimit:4;stroke-opacity:1;stroke-dasharray:none"
       d="m 2301.9321,566.77168 8.8583,17.71654 8.8582,17.71654 -17.7165,0 -17.7165,0 8.8582,-17.71654 z"
       id="path3029"
       inkscape:connector-curvature="0" />
    <path
       style="fill:#ffffff;fill-rule:evenodd;stroke:#ffffff;stroke-width:3.54330707;stroke-linejoin:bevel;stroke-miterlimit:4;stroke-opacity:1;stroke-dasharray:none"
       d="m 2195.6329,637.63784 8.8583,17.71653 8.8582,17.71654 -17.7165,0 -17.7165,0 8.8582,-17.71654 z"
       id="path3027"
       inkscape:connector-curvature="0" />
    <path
       style="fill:#ffffff;fill-rule:evenodd;stroke:#ffffff;stroke-width:3.54330707;stroke-linejoin:bevel;stroke-miterlimit:4;stroke-opacity:1;stroke-dasharray:none"
       d="m 2213.3494,673.07091 -8.8583,-17.71653 -8.8583,-17.71654 17.7166,0 17.7165,0 -8.8583,17.71654 z"
       id="path3025"
       inkscape:connector-curvature="0" />
    <path
       style="fill:#ffffff;fill-rule:evenodd;stroke:#ffffff;stroke-width:3.54330707;stroke-linejoin:bevel;stroke-miterlimit:4;stroke-opacity:1;stroke-dasharray:none"
       d="m 2248.7824,673.07091 -8.8583,-17.71653 -8.8583,-17.71654 17.7166,0 17.7165,0 -8.8583,17.71654 z"
       id="path3023"
       inkscape:connector-curvature="0" />
    <path
       style="fill:#ffffff;fill-rule:evenodd;stroke:#ffffff;stroke-width:3.54330707;stroke-linejoin:bevel;stroke-miterlimit:4;stroke-opacity:1;stroke-dasharray:none"
       d="m 2231.0659,637.63784 8.8583,17.71653 8.8582,17.71654 -17.7165,0 -17.7165,0 8.8582,-17.71654 z"
       id="path3021"
       inkscape:connector-curvature="0" />
    <path
       style="fill:#ffffff;fill-rule:evenodd;stroke:#ffffff;stroke-width:3.54330707;stroke-linejoin:bevel;stroke-miterlimit:4;stroke-opacity:1;stroke-dasharray:none"
       d="m 2266.499,637.63784 8.8583,17.71653 8.8582,17.71654 -17.7165,0 -17.7165,0 8.8582,-17.71654 z"
       id="path3019"
       inkscape:connector-curvature="0" />
    <path
       style="fill:#ffffff;fill-rule:evenodd;stroke:#ffffff;stroke-width:3.54330707;stroke-linejoin:bevel;stroke-miterlimit:4;stroke-opacity:1;stroke-dasharray:none"
       d="m 2195.6329,708.50398 8.8583,17.71653 8.8582,17.71654 -17.7165,0 -17.7165,0 8.8582,-17.71654 z"
       id="path3017"
       inkscape:connector-curvature="0" />
    <path
       style="fill:#ffffff;fill-rule:evenodd;stroke:#ffffff;stroke-width:3.54330707;stroke-linejoin:bevel;stroke-miterlimit:4;stroke-opacity:1;stroke-dasharray:none"
       d="m 2284.2155,743.93705 -8.8583,-17.71653 -8.8583,-17.71654 17.7166,0 17.7165,0 -8.8583,17.71654 z"
       id="path3015"
       inkscape:connector-curvature="0" />
    <path
       style="fill:#ffffff;fill-rule:evenodd;stroke:#ffffff;stroke-width:3.54330707;stroke-linejoin:bevel;stroke-miterlimit:4;stroke-opacity:1;stroke-dasharray:none"
       d="m 2266.499,708.50398 8.8583,17.71653 8.8582,17.71654 -17.7165,0 -17.7165,0 8.8582,-17.71654 z"
       id="path3013"
       inkscape:connector-curvature="0" />
    <path
       style="fill:#ffffff;fill-rule:evenodd;stroke:#ffffff;stroke-width:3.54330707;stroke-linejoin:bevel;stroke-miterlimit:4;stroke-opacity:1;stroke-dasharray:none"
       d="m 2177.9163,743.93703 -8.8583,-17.71653 -8.8583,-17.71654 17.7166,0 17.7165,0 -8.8582,17.71654 z"
       id="path3011"
       inkscape:connector-curvature="0" />
    <path
       style="fill:#ffffff;fill-rule:evenodd;stroke:#ffffff;stroke-width:3.54330707;stroke-linejoin:bevel;stroke-miterlimit:4;stroke-opacity:1;stroke-dasharray:none"
       d="m 2266.4989,637.63783 -8.8583,-17.71653 -8.8583,-17.71654 17.7166,0 17.7165,0 -8.8583,17.71654 z"
       id="path3009"
       inkscape:connector-curvature="0" />
    <path
       style="fill:#ffffff;fill-rule:evenodd;stroke:#ffffff;stroke-width:3.54330707;stroke-linejoin:bevel;stroke-miterlimit:4;stroke-opacity:1;stroke-dasharray:none"
       d="m 2248.7824,602.20476 8.8583,17.71653 8.8582,17.71654 -17.7165,0 -17.7165,0 8.8582,-17.71654 z"
       id="path3007"
       inkscape:connector-curvature="0" />
    <path
       style="fill:#ffffff;fill-rule:evenodd;stroke:#ffffff;stroke-width:3.54330707;stroke-linejoin:bevel;stroke-miterlimit:4;stroke-opacity:1;stroke-dasharray:none"
       d="m 2177.9163,673.0709 8.8583,17.71653 8.8582,17.71654 -17.7165,0 -17.7165,0 8.8582,-17.71654 z"
       id="path3005"
       inkscape:connector-curvature="0" />
    <path
       style="fill:#ffffff;fill-rule:evenodd;stroke:#ffffff;stroke-width:3.54330707;stroke-linejoin:bevel;stroke-miterlimit:4;stroke-opacity:1;stroke-dasharray:none"
       d="m 2195.6328,708.50397 -8.8583,-17.71653 -8.8583,-17.71654 17.7166,0 17.7165,0 -8.8583,17.71654 z"
       id="path3003"
       inkscape:connector-curvature="0" />
    <path
       style="fill:#ffffff;fill-rule:evenodd;stroke:#ffffff;stroke-width:3.54330707;stroke-linejoin:bevel;stroke-miterlimit:4;stroke-opacity:1;stroke-dasharray:none"
       d="m 2266.4989,708.50397 -8.8583,-17.71653 -8.8583,-17.71654 17.7166,0 17.7165,0 -8.8583,17.71654 z"
       id="path3001"
       inkscape:connector-curvature="0" />
    <path
       style="fill:#ffffff;fill-rule:evenodd;stroke:#ffffff;stroke-width:3.54330707;stroke-linejoin:bevel;stroke-miterlimit:4;stroke-opacity:1;stroke-dasharray:none"
       d="m 2301.932,708.50397 -8.8583,-17.71653 -8.8583,-17.71654 17.7166,0 17.7165,0 -8.8583,17.71654 z"
       id="path2999"
       inkscape:connector-curvature="0" />
    <path
       style="fill:#ffffff;fill-rule:evenodd;stroke:#ffffff;stroke-width:3.54330707;stroke-linejoin:bevel;stroke-miterlimit:4;stroke-opacity:1;stroke-dasharray:none"
       d="m 2284.2155,673.0709 8.8582,17.71653 8.8583,17.71654 -17.7165,0 -17.7165,0 8.8582,-17.71654 z"
       id="path2997"
       inkscape:connector-curvature="0" />
    <path
       style="fill:#ffffff;fill-rule:evenodd;stroke:#ffffff;stroke-width:3.54330707;stroke-linejoin:bevel;stroke-miterlimit:4;stroke-opacity:1;stroke-dasharray:none"
       d="m 2195.6328,779.37006 -8.8583,-17.71653 -8.8583,-17.71654 17.7166,0 17.7165,0 -8.8583,17.71654 z"
       id="path2995"
       inkscape:connector-curvature="0" />
    <path
       style="fill:#ffffff;fill-rule:evenodd;stroke:#ffffff;stroke-width:3.54330707;stroke-linejoin:bevel;stroke-miterlimit:4;stroke-opacity:1;stroke-dasharray:none"
       d="m 2231.0658,779.37006 -8.8583,-17.71653 -8.8583,-17.71654 17.7166,0 17.7165,0 -8.8583,17.71654 z"
       id="path2993"
       inkscape:connector-curvature="0" />
    <path
       style="fill:#ffffff;fill-rule:evenodd;stroke:#ffffff;stroke-width:3.54330707;stroke-linejoin:bevel;stroke-miterlimit:4;stroke-opacity:1;stroke-dasharray:none"
       d="m 2213.3493,743.93704 8.8583,17.71653 8.8582,17.71654 -17.7165,0 -17.7165,0 8.8582,-17.71654 z"
       id="path2991"
       inkscape:connector-curvature="0" />
    <path
       style="fill:#ffffff;fill-rule:evenodd;stroke:#ffffff;stroke-width:3.54330707;stroke-linejoin:bevel;stroke-miterlimit:4;stroke-opacity:1;stroke-dasharray:none"
       d="m 2266.4989,779.37006 -8.8583,-17.71653 -8.8583,-17.71654 17.7166,0 17.7165,0 -8.8583,17.71654 z"
       id="path2989"
       inkscape:connector-curvature="0" />
    <path
       style="fill:#ffffff;fill-rule:evenodd;stroke:#ffffff;stroke-width:3.54330707;stroke-linejoin:bevel;stroke-miterlimit:4;stroke-opacity:1;stroke-dasharray:none"
       d="m 2248.7824,743.93704 8.8583,17.71653 8.8582,17.71654 -17.7165,0 -17.7165,0 8.8582,-17.71654 z"
       id="path3790-6-8"
       inkscape:connector-curvature="0" />
    <path
       id="path4813"
       style="color:#000000;fill:#ff9945;fill-opacity:1;fill-rule:evenodd;stroke:#ff9945;stroke-width:3.54330707;stroke-linejoin:bevel;stroke-opacity:1;marker:none;visibility:visible;display:inline;overflow:visible;enable-background:accumulate"
       d="m 1879.8134,720.06869 -0.25,0.18734 -17.7041,-23.61834 -11.6959,-5.84918 -17.7196,35.43156 11.6959,5.84918 29.5171,-0.003 10e-5,0.31253 6.1565,-12.31036 z m -230.3159,12.30973 10e-5,-0.31244 29.5171,0.003 11.6959,-5.84918 -17.7196,-35.43156 -11.6959,5.84918 -17.704,23.61843 -0.2501,-0.18743 6.1565,12.31036 z m 82.8025,64.70823 -0.2499,-0.12509 11.811,-23.61163 0,-11.69635 -35.4331,0 0,11.69635 11.8111,23.61163 -0.25,0.12509 12.3109,0 z m 70.8662,0 -0.2499,-0.12509 11.811,-23.61163 0,-11.69635 -35.4331,0 0,11.69635 11.8111,23.61163 -0.25,0.12509 12.3109,0 z m 5.4056,-248.03149 0.2499,0.12509 -11.811,23.61163 0,11.69635 35.4331,0 0,-11.69635 -11.8111,-23.61163 0.25,-0.12509 -12.3109,0 z m 82.8016,64.70903 -10e-5,0.31244 -29.5171,-0.003 -11.6959,5.84918 17.7196,35.43156 11.6959,-5.84918 17.704,-23.61843 0.2501,0.18743 -6.1565,-12.31036 z m -230.3159,12.31 0.25,-0.18734 17.7041,23.61834 11.6959,5.84918 17.7196,-35.43156 -11.6959,-5.84918 -29.5171,0.003 -10e-5,-0.31253 -6.1565,12.31036 z m 77.0025,-77.01903 0.2499,0.12509 -11.811,23.61163 0,11.69635 35.4331,0 0,-11.69635 -11.8111,-23.61163 0.25,-0.12509 -12.3109,0 z m 94.3838,106.29915 -8.8583,-17.71653 -8.8582,-17.71654 17.7165,0 17.7165,0 -8.8582,17.71654 z m 17.7165,-35.43307 8.8583,17.71653 8.8582,17.71654 -17.7165,0 -17.7165,0 8.8582,-17.71654 z m -124.0157,35.43305 -8.8583,-17.71653 -8.8582,-17.71654 17.7165,0 17.7165,0 -8.8582,17.71654 z m -17.7166,-35.43305 8.8583,17.71653 8.8582,17.71654 -17.7165,0 -17.7165,0 8.8582,-17.71654 z m 124.0158,106.29921 -8.8583,-17.71653 -8.8582,-17.71654 17.7165,0 17.7165,0 -8.8582,17.71654 z m -17.7166,-35.43307 8.8583,17.71653 8.8582,17.71654 -17.7165,0 -17.7165,0 8.8582,-17.71654 z m -124.0157,35.43306 -8.8583,-17.71653 -8.8582,-17.71654 17.7165,0 17.7165,0 -8.8582,17.71654 z m 17.7165,-35.43306 8.8583,17.71653 8.8582,17.71654 -17.7165,0 -17.7165,0 8.8582,-17.71654 z m 88.5827,-106.29921 8.8583,17.71653 8.8582,17.71654 -17.7165,0 -17.7165,0 8.8582,-17.71654 z m 17.7166,35.43307 -8.8583,-17.71653 -8.8582,-17.71654 17.7165,0 17.7165,0 -8.8582,17.71654 z m 17.7164,-35.43307 8.8583,17.71653 8.8582,17.71654 -17.7165,0 -17.7165,0 8.8582,-17.71654 z m -88.2266,35.43306 -8.8583,-17.71653 -8.8582,-17.71654 17.7165,0 17.7165,0 -8.8582,17.71654 z m -17.5739,-35.43307 8.8583,17.71653 8.8582,17.71654 -17.7165,0 -17.7165,0 8.8582,-17.71654 z m 52.7222,35.43306 -8.8583,-17.71653 -8.8582,-17.71654 17.7165,0 17.7165,0 -8.8582,17.71654 z m -17.574,-35.43305 8.8583,17.71653 8.8582,17.71654 -17.7165,0 -17.7165,0 8.8582,-17.71654 z m 88.3689,106.29921 -8.8583,-17.71653 -8.8582,-17.71654 17.7165,0 17.7165,0 -8.8582,17.71654 z m -17.7165,-35.43307 8.8583,17.71653 8.8582,17.71654 -17.7165,0 -17.7165,0 8.8582,-17.71654 z m -124.0157,35.43307 -8.8583,-17.71653 -8.8582,-17.71654 17.7165,0 17.7165,0 -8.8582,17.71654 z m -17.7166,-35.43307 8.8583,17.71653 8.8582,17.71654 -17.7165,0 -17.7165,0 8.8582,-17.71654 z m 106.2992,70.86615 8.8583,17.71653 8.8582,17.71653 -17.7165,0 -17.7165,0 8.8582,-17.71653 z m 17.7166,35.43307 -8.8583,-17.71653 -8.8582,-17.71654 17.7165,0 17.7165,0 -8.8582,17.71654 z m -106.2992,0 -8.8583,-17.71653 -8.8582,-17.71654 17.7165,0 17.7165,0 -8.8582,17.71654 z m 35.433,-1e-5 -8.8583,-17.71653 -8.8582,-17.71654 17.7165,0 17.7165,0 -8.8582,17.71654 z m -17.7165,-35.43307 8.8583,17.71653 8.8582,17.71654 -17.7165,0 -17.7165,0 8.8582,-17.71654 z m 53.1496,35.43306 -8.8583,-17.71653 -8.8582,-17.71654 17.7165,0 17.7165,0 -8.8582,17.71654 z m -17.7166,-35.43305 8.8583,17.71653 8.8582,17.71653 -17.7165,0 -17.7165,0 8.8582,-17.71653 z"
       inkscape:connector-curvature="0" />
    <path
       id="path3790-6-8-9-2-6"
       style="fill:#ffffff;fill-rule:evenodd;stroke:#ffffff;stroke-width:1.77165353;stroke-miterlimit:4;stroke-opacity:1;stroke-dasharray:none"
       d="m 2762.5618,566.77169 8.8583,17.71653 8.8582,17.71654 -17.7165,0 -17.7165,0 8.8582,-17.71654 z m 17.7165,35.43302 -8.8583,-17.71653 -8.8583,-17.71654 17.7166,0 17.7165,0 -8.8583,17.71654 z m 3e-4,141.73233 8.8583,17.71653 8.8582,17.71654 -17.7165,0 -17.7165,0 8.8582,-17.71654 z m -17.7167,35.43302 -8.8583,-17.71653 -8.8583,-17.71654 17.7166,0 17.7165,0 -8.8583,17.71654 z m -35.4331,-141.73223 -8.8583,-17.71653 -8.8583,-17.71654 17.7166,0 17.7165,0 -8.8583,17.71654 z m 159.449,-35.43307 8.8583,17.71653 8.8582,17.71654 -17.7165,0 -17.7165,0 8.8582,-17.71654 z m 17.7166,35.43307 -8.8583,-17.71653 -8.8583,-17.71654 17.7166,0 17.7165,0 -8.8583,17.71654 z m -230.3153,-35.43307 8.8583,17.71653 8.8582,17.71654 -17.7165,0 -17.7165,0 8.8582,-17.71654 z m 17.7166,35.43307 -8.8583,-17.71653 -8.8583,-17.71654 17.7166,0 17.7165,0 -8.8583,17.71654 z m 177.1656,0 8.8583,17.71653 8.8582,17.71654 -17.7165,0 -17.7165,0 8.8582,-17.71654 z m 17.7166,35.43307 -8.8583,-17.71653 -8.8583,-17.71654 17.7166,0 17.7165,0 -8.8583,17.71654 z m -230.3153,-35.43307 8.8583,17.71653 8.8582,17.71654 -17.7165,0 -17.7165,0 8.8582,-17.71654 z m 17.7166,35.43307 -8.8583,-17.71653 -8.8583,-17.71654 17.7166,0 17.7165,0 -8.8583,17.71654 z m 177.1655,0 8.8583,17.71653 8.8582,17.71654 -17.7165,0 -17.7165,0 8.8582,-17.71654 z m 17.7166,35.43307 -8.8583,-17.71653 -8.8583,-17.71654 17.7166,0 17.7165,0 -8.8583,17.71654 z m -230.3153,-35.43307 8.8583,17.71653 8.8582,17.71654 -17.7165,0 -17.7165,0 8.8582,-17.71654 z m 17.7166,35.43307 -8.8583,-17.71653 -8.8583,-17.71654 17.7166,0 17.7165,0 -8.8583,17.71654 z m 177.1656,0 8.8583,17.71653 8.8582,17.71654 -17.7165,0 -17.7165,0 8.8582,-17.71654 z m 17.7166,35.43307 -8.8583,-17.71653 -8.8583,-17.71654 17.7166,0 17.7165,0 -8.8583,17.71654 z m -230.3153,-35.43307 8.8583,17.71653 8.8582,17.71654 -17.7165,0 -17.7165,0 8.8582,-17.71654 z m 17.7166,35.43307 -8.8583,-17.71653 -8.8583,-17.71654 17.7166,0 17.7165,0 -8.8583,17.71654 z m 194.8819,-106.29921 -8.8583,-17.71653 -8.8583,-17.71654 17.7166,0 17.7165,0 -8.8583,17.71654 z m -17.7166,-35.43307 8.8583,17.71653 8.8582,17.71654 -17.7165,0 -17.7165,0 8.8582,-17.71654 z m 10e-5,70.86614 -8.8583,-17.71653 -8.8583,-17.71654 17.7166,0 17.7165,0 -8.8583,17.71654 z m -17.7165,35.43307 -8.8583,-17.71653 -8.8583,-17.71654 17.7166,0 17.7165,0 -8.8583,17.71654 z m -10e-5,-70.86614 8.8583,17.71653 8.8582,17.71654 -17.7165,0 -17.7165,0 8.8582,-17.71654 z m -35.433,70.86614 -8.8583,-17.71653 -8.8583,-17.71654 17.7166,0 17.7165,0 -8.8583,17.71654 z m 17.7164,-35.43307 8.8583,17.71653 8.8582,17.71654 -17.7165,0 -17.7165,0 8.8582,-17.71654 z m -35.4329,0 -8.8583,-17.71653 -8.8583,-17.71654 17.7166,0 17.7165,0 -8.8583,17.71654 z m 17.7164,-35.43307 8.8583,17.71653 8.8582,17.71654 -17.7165,0 -17.7165,0 8.8582,-17.71654 z m -17.7165,-35.43307 8.8583,17.71653 8.8582,17.71654 -17.7165,0 -17.7165,0 8.8582,-17.71654 z m 159.449,-35.43307 8.8583,17.71653 8.8582,17.71654 -17.7165,0 -17.7165,0 8.8582,-17.71654 z m 17.7165,35.43302 -8.8583,-17.71653 -8.8583,-17.71654 17.7166,0 17.7165,0 -8.8583,17.71654 z m -53.1496,-35.43302 8.8583,17.71653 8.8582,17.71654 -17.7165,0 -17.7165,0 8.8582,-17.71654 z m 17.7165,35.43302 -8.8583,-17.71653 -8.8583,-17.71654 17.7166,0 17.7165,0 -8.8583,17.71654 z m -53.1497,-35.43302 8.8583,17.71653 8.8582,17.71654 -17.7165,0 -17.7165,0 8.8582,-17.71654 z m 17.7165,35.43302 -8.8583,-17.71653 -8.8583,-17.71654 17.7166,0 17.7165,0 -8.8583,17.71654 z m -53.1496,-35.43302 8.8583,17.71653 8.8582,17.71654 -17.7165,0 -17.7165,0 8.8582,-17.71654 z m 17.7165,35.43302 -8.8583,-17.71653 -8.8583,-17.71654 17.7166,0 17.7165,0 -8.8583,17.71654 z m -88.5827,-35.43302 8.8583,17.71653 8.8582,17.71654 -17.7165,0 -17.7165,0 8.8582,-17.71654 z m 17.7165,35.43302 -8.8583,-17.71653 -8.8583,-17.71654 17.7166,0 17.7165,0 -8.8583,17.71654 z m -53.1496,-35.43302 8.8583,17.71653 8.8582,17.71654 -17.7165,0 -17.7165,0 8.8582,-17.71654 z m 17.7165,35.43302 -8.8583,-17.71653 -8.8583,-17.71654 17.7166,0 17.7165,0 -8.8583,17.71654 z m 106.2996,141.73233 8.8583,17.71653 8.8582,17.71654 -17.7165,0 -17.7165,0 8.8582,-17.71654 z m 17.7165,35.43302 -8.8583,-17.71653 -8.8583,-17.71654 17.7166,0 17.7165,0 -8.8583,17.71654 z m -88.5829,-35.43302 8.8583,17.71653 8.8582,17.71654 -17.7165,0 -17.7165,0 8.8582,-17.71654 z m 53.1498,35.43302 -8.8583,-17.71653 -8.8583,-17.71654 17.7166,0 17.7165,0 -8.8583,17.71654 z m -88.583,-35.43302 8.8583,17.71653 8.8582,17.71654 -17.7165,0 -17.7165,0 8.8582,-17.71654 z m 17.7165,35.43302 -8.8583,-17.71653 -8.8583,-17.71654 17.7166,0 17.7165,0 -8.8583,17.71654 z m -53.1496,-35.43302 8.8583,17.71653 8.8582,17.71654 -17.7165,0 -17.7165,0 8.8582,-17.71654 z m 17.7165,35.43302 -8.8583,-17.71653 -8.8583,-17.71654 17.7166,0 17.7165,0 -8.8583,17.71654 z m -53.1494,-35.43302 8.8583,17.71653 8.8582,17.71654 -17.7165,0 -17.7165,0 8.8582,-17.71654 z m 17.7165,35.43302 -8.8583,-17.71653 -8.8583,-17.71654 17.7166,0 17.7165,0 -8.8583,17.71654 z m -53.1496,-35.43302 8.8583,17.71653 8.8582,17.71654 -17.7165,0 -17.7165,0 8.8582,-17.71654 z m 17.7165,35.43302 -8.8583,-17.71653 -8.8583,-17.71654 17.7166,0 17.7165,0 -8.8583,17.71654 z"
       inkscape:connector-curvature="0" />
    <path
       id="path3790-6-8-9-2-30-9"
       style="fill:#ffffff;fill-rule:evenodd;stroke:#ffffff;stroke-opacity:1;stroke-width:1.77165354;stroke-miterlimit:4;stroke-dasharray:none"
       d="m 3329.4909,637.63783 8.8583,17.71653 8.8582,17.71654 -17.7165,0 -17.7165,0 8.8582,-17.71654 z m 17.7165,35.43302 -8.8583,-17.71653 -8.8583,-17.71654 17.7166,0 17.7165,0 -8.8583,17.71654 z m -53.1496,-35.43302 8.8583,17.71653 8.8582,17.71654 -17.7165,0 -17.7165,0 8.8582,-17.71654 z m 17.7165,35.43302 -8.8583,-17.71653 -8.8583,-17.71654 17.7166,0 17.7165,0 -8.8583,17.71654 z m -53.1495,-35.43302 8.8583,17.71653 8.8582,17.71654 -17.7165,0 -17.7165,0 8.8582,-17.71654 z m 17.7165,35.43302 -8.8583,-17.71653 -8.8583,-17.71654 17.7166,0 17.7165,0 -8.8583,17.71654 z m 88.5828,-106.29916 8.8583,17.71653 8.8582,17.71654 -17.7165,0 -17.7165,0 8.8582,-17.71654 z m 17.7165,35.43302 -8.8583,-17.71653 -8.8583,-17.71654 17.7166,0 17.7165,0 -8.8583,17.71654 z m -35.4331,5e-5 8.8583,17.71653 8.8582,17.71654 -17.7165,0 -17.7165,0 8.8582,-17.71654 z m 17.7165,35.43302 -8.8583,-17.71653 -8.8583,-17.71654 17.7166,0 17.7165,0 -8.8583,17.71654 z m -35.433,-70.86609 8.8583,17.71653 8.8582,17.71654 -17.7165,0 -17.7165,0 8.8582,-17.71654 z m 17.7165,35.43302 -8.8583,-17.71653 -8.8583,-17.71654 17.7166,0 17.7165,0 -8.8583,17.71654 z m -35.4331,5e-5 8.8583,17.71653 8.8582,17.71654 -17.7165,0 -17.7165,0 8.8582,-17.71654 z m 17.7165,35.43302 -8.8583,-17.71653 -8.8583,-17.71654 17.7166,0 17.7165,0 -8.8583,17.71654 z m -35.4329,-70.86609 8.8583,17.71653 8.8582,17.71654 -17.7165,0 -17.7165,0 8.8582,-17.71654 z m 17.7165,35.43302 -8.8583,-17.71653 -8.8583,-17.71654 17.7166,0 17.7165,0 -8.8583,17.71654 z m -35.4331,5e-5 8.8583,17.71653 8.8582,17.71654 -17.7165,0 -17.7165,0 8.8582,-17.71654 z m 17.7165,35.43302 -8.8583,-17.71653 -8.8583,-17.71654 17.7166,0 17.7165,0 -8.8583,17.71654 z m -35.433,-70.86609 8.8583,17.71653 8.8582,17.71654 -17.7165,0 -17.7165,0 8.8582,-17.71654 z m 17.7165,35.43302 -8.8583,-17.71653 -8.8583,-17.71654 17.7166,0 17.7165,0 -8.8583,17.71654 z m -35.4331,5e-5 8.8583,17.71653 8.8582,17.71654 -17.7165,0 -17.7165,0 8.8582,-17.71654 z m 17.7165,35.43302 -8.8583,-17.71653 -8.8583,-17.71654 17.7166,0 17.7165,0 -8.8583,17.71654 z m -35.433,5e-5 8.8583,17.71653 8.8582,17.71654 -17.7165,0 -17.7165,0 8.8582,-17.71654 z m 17.7165,35.43302 -8.8583,-17.71653 -8.8583,-17.71654 17.7166,0 17.7165,0 -8.8583,17.71654 z m -35.4331,5e-5 8.8583,17.71653 8.8582,17.71654 -17.7165,0 -17.7165,0 8.8582,-17.71654 z m 17.7165,35.43302 -8.8583,-17.71653 -8.8583,-17.71654 17.7166,0 17.7165,0 -8.8583,17.71654 z m -35.433,5e-5 8.8583,17.71653 8.8582,17.71654 -17.7165,0 -17.7165,0 8.8582,-17.71654 z m 17.7165,35.43302 -8.8583,-17.71653 -8.8583,-17.71654 17.7166,0 17.7165,0 -8.8583,17.71654 z m -35.4331,5e-5 8.8583,17.71653 8.8582,17.71654 -17.7165,0 -17.7165,0 8.8582,-17.71654 z m 17.7165,35.43302 -8.8583,-17.71653 -8.8583,-17.71654 17.7166,0 17.7165,0 -8.8583,17.71654 z" />
    <path
       id="path2989-0-5-3-9-8-9"
       style="fill:#ffffff;fill-rule:evenodd;stroke:#ffffff;stroke-opacity:1;stroke-width:1.77165354;stroke-miterlimit:4;stroke-dasharray:none"
       d="m 3666.1052,637.63783 -8.8583,-17.71653 -8.8583,-17.71654 17.7166,0 17.7165,0 -8.8583,17.71654 z m 17.7166,35.43307 -8.8583,-17.71653 -8.8583,-17.71654 17.7166,0 17.7165,0 -8.8583,17.71654 z m 10e-5,-70.86614 8.8583,17.71653 8.8582,17.71654 -17.7165,0 -17.7165,0 8.8582,-17.71654 z m 35.4329,141.73228 -8.8583,-17.71653 -8.8583,-17.71654 17.7166,0 17.7165,0 -8.8583,17.71654 z m 10e-5,-70.86614 8.8583,17.71653 8.8582,17.71654 -17.7165,0 -17.7165,0 8.8582,-17.71654 z m 17.7165,35.43302 -8.8583,-17.71653 -8.8583,-17.71654 17.7166,0 17.7164,0 -8.8582,17.71654 z m -35.4331,0 -8.8583,-17.71653 -8.8583,-17.71654 17.7166,0 17.7165,0 -8.8583,17.71654 z m 53.1497,-106.29916 8.8583,17.71653 8.8582,17.71654 -17.7165,0 -17.7164,0 8.8582,-17.71654 z m 17.7165,35.43302 -8.8583,-17.71653 -8.8583,-17.71654 17.7166,0 17.7165,0 -8.8583,17.71654 z m -35.433,5e-5 8.8583,17.71653 8.8581,17.71654 -17.7164,0 -17.7165,0 8.8582,-17.71654 z m 17.7164,35.43302 -8.8582,-17.71653 -8.8583,-17.71654 17.7165,0 17.7165,0 -8.8583,17.71654 z m -35.4329,-70.86609 8.8583,17.71653 8.8582,17.71654 -17.7165,0 -17.7165,0 8.8582,-17.71654 z m 17.7165,35.43302 -8.8583,-17.71653 -8.8583,-17.71654 17.7166,0 17.7164,0 -8.8582,17.71654 z m -35.4331,5e-5 8.8583,17.71653 8.8582,17.71654 -17.7165,0 -17.7165,0 8.8582,-17.71654 z m 17.7165,35.43302 -8.8583,-17.71653 -8.8583,-17.71654 17.7166,0 17.7165,0 -8.8583,17.71654 z m -17.7164,-35.43307 -8.8583,-17.71653 -8.8583,-17.71654 17.7166,0 17.7165,0 -8.8583,17.71654 z" />
    <path
       id="path3790-6-8-9-2-7-8-6-2-4-4-1-5"
       style="fill:#ffffff;fill-rule:evenodd;stroke:none;stroke-width:1.77165354;stroke-miterlimit:4;stroke-dasharray:none"
       d="m 4233.0344,549.05516 8.8583,17.71653 8.8582,17.71654 -17.7165,0 -17.7164,0 8.8582,-17.71654 z m -17.7165,35.43307 -8.8583,-17.71653 -8.8583,-17.71654 17.7166,0 17.7165,0 -8.8583,17.71654 z m -17.7166,-35.43307 8.8583,17.71653 8.8582,17.71654 -17.7165,0 -17.7164,0 8.8582,-17.71654 z m 53.1496,35.43307 8.8583,17.71653 8.8582,17.71654 -17.7165,0 -17.7164,0 8.8582,-17.71654 z m -17.7165,35.43307 -8.8583,-17.71653 -8.8583,-17.71654 17.7166,0 17.7165,0 -8.8583,17.71654 z m 35.4331,0 8.8583,17.71653 8.8582,17.71654 -17.7165,0 -17.7164,0 8.8582,-17.71654 z m -17.7166,35.43307 -8.8583,-17.71653 -8.8583,-17.71654 17.7166,0 17.7165,0 -8.8583,17.71654 z m 53.1496,106.29921 -8.8583,-17.71653 -8.8583,-17.71654 17.7166,0 17.7165,0 -8.8583,17.71654 z m -10e-5,-70.86614 8.8583,17.71653 8.8582,17.71654 -17.7165,0 -17.7165,0 8.8582,-17.71654 z m 17.7166,35.43307 8.8583,17.71653 8.8582,17.71654 -17.7165,0 -17.7165,0 8.8582,-17.71654 z m -35.433,-70.86614 8.8583,17.71653 8.8582,17.71654 -17.7165,0 -17.7164,0 8.8582,-17.71654 z m 35.4331,141.73228 -8.8583,-17.71653 -8.8583,-17.71654 17.7166,0 17.7165,0 -8.8583,17.71654 z m -35.4331,-70.86614 -8.8582,-17.71653 -8.8583,-17.71654 17.7165,0 17.7165,0 -8.8583,17.71654 z m -17.7164,-35.43312 -8.8583,-17.71653 -8.8583,-17.71654 17.7166,0 17.7164,0 -8.8582,17.71654 z m -53.1498,-106.29916 8.8583,17.71653 8.8582,17.71654 -17.7165,0 -17.7164,0 8.8582,-17.71654 z m -17.7165,35.43307 -8.8583,-17.71653 -8.8583,-17.71654 17.7166,0 17.7165,0 -8.8583,17.71654 z m 35.4331,0 8.8583,17.71653 8.8582,17.71654 -17.7165,0 -17.7164,0 8.8582,-17.71654 z m -17.7166,35.43307 -8.8583,-17.71653 -8.8583,-17.71654 17.7166,0 17.7165,0 -8.8583,17.71654 z m 53.1496,106.29921 -8.8583,-17.71653 -8.8583,-17.71654 17.7166,0 17.7165,0 -8.8583,17.71654 z m -17.7165,35.43307 -8.8583,-17.71653 -8.8583,-17.71654 17.7166,0 17.7165,0 -8.8583,17.71654 z m 17.7164,-106.29921 8.8583,17.71653 8.8582,17.71654 -17.7165,0 -17.7165,0 8.8582,-17.71654 z m 35.4331,70.86614 8.8583,17.71653 8.8582,17.71654 -17.7165,0 -17.7165,0 8.8582,-17.71654 z m -17.7165,-35.43307 8.8583,17.71653 8.8582,17.71654 -17.7165,0 -17.7165,0 8.8582,-17.71654 z m -35.433,0 8.8583,17.71653 8.8582,17.71654 -17.7165,0 -17.7165,0 8.8582,-17.71654 z m 17.7164,35.43307 8.8583,17.71653 8.8582,17.71654 -17.7165,0 -17.7165,0 8.8582,-17.71654 z m -35.433,0 8.8583,17.71653 8.8582,17.71654 -17.7165,0 -17.7165,0 8.8582,-17.71654 z m -70.8661,0 8.8583,17.71653 8.8582,17.71654 -17.7165,0 -17.7165,0 8.8582,-17.71654 z m 0,0 -8.8583,-17.71653 -8.8583,-17.71654 17.7166,0 17.7165,0 -8.8583,17.71654 z m 17.7167,35.43307 -8.8583,-17.71653 -8.8583,-17.71654 17.7166,0 17.7165,0 -8.8583,17.71654 z m 17.7166,-35.43307 8.8583,17.71653 8.8582,17.71654 -17.7165,0 -17.7165,0 8.8582,-17.71654 z m -17.7166,-35.43307 8.8583,17.71653 8.8582,17.71654 -17.7165,0 -17.7165,0 8.8582,-17.71654 z m -17.7167,-35.43307 8.8583,17.71653 8.8582,17.71654 -17.7165,0 -17.7165,0 8.8582,-17.71654 z m 0,0 -8.8583,-17.71653 -8.8583,-17.71654 17.7166,0 17.7165,0 -8.8583,17.71654 z m 17.7167,35.43307 -8.8583,-17.71653 -8.8583,-17.71654 17.7166,0 17.7165,0 -8.8583,17.71654 z m 0,-70.86614 8.8583,17.71653 8.8582,17.71654 -17.7165,0 -17.7165,0 8.8582,-17.71654 z m 35.4331,141.73228 -8.8583,-17.71653 -8.8583,-17.71654 17.7166,0 17.7165,0 -8.8583,17.71654 z m 0,-70.86614 8.8583,17.71653 8.8582,17.71654 -17.7165,0 -17.7165,0 8.8582,-17.71654 z m 17.7165,35.43307 -8.8583,-17.71653 -8.8583,-17.71654 17.7166,0 17.7164,0 -8.8582,17.71654 z m -35.433,0 -8.8583,-17.71653 -8.8583,-17.71654 17.7166,0 17.7165,0 -8.8583,17.71654 z m 53.1494,-106.29921 8.8583,17.71653 8.8582,17.71654 -17.7165,0 -17.7164,0 8.8582,-17.71654 z m 35.4331,141.73228 -8.8583,-17.71653 -8.8583,-17.71654 17.7166,0 17.7165,0 -8.8583,17.71654 z m -53.1495,-106.29921 8.8583,17.71653 8.8581,17.71654 -17.7164,0 -17.7165,0 8.8582,-17.71654 z m 17.7164,35.43307 -8.8582,-17.71653 -8.8583,-17.71654 17.7165,0 17.7165,0 -8.8583,17.71654 z m -35.4329,-70.86614 8.8583,17.71653 8.8582,17.71654 -17.7165,0 -17.7165,0 8.8582,-17.71654 z m 17.7165,35.43302 -8.8583,-17.71653 -8.8583,-17.71654 17.7166,0 17.7164,0 -8.8582,17.71654 z m -35.433,5e-5 8.8583,17.71653 8.8582,17.71654 -17.7165,0 -17.7165,0 8.8582,-17.71654 z m 17.7165,35.43307 -8.8583,-17.71653 -8.8583,-17.71654 17.7166,0 17.7165,0 -8.8583,17.71654 z m -17.7165,-35.43312 -8.8583,-17.71653 -8.8583,-17.71654 17.7166,0 17.7165,0 -8.8583,17.71654 z" />
    <path
       id="path3790-6-8-9-2-7-8-6-2-4-4-1-5-3"
       style="fill:#ffffff;fill-rule:evenodd;stroke:none;stroke-width:1.77165354;stroke-miterlimit:4;stroke-dasharray:none"
       d="m 4729.0974,797.08665 8.8583,-17.71653 8.8582,-17.71654 -17.7165,0 -17.7164,0 8.8582,17.71654 z m -17.7165,-35.43307 -8.8583,17.71653 -8.8583,17.71654 17.7166,0 17.7165,0 -8.8583,-17.71654 z m -17.7166,35.43307 8.8583,-17.71653 8.8582,-17.71654 -17.7165,0 -17.7164,0 8.8582,17.71654 z m 53.1496,-35.43307 8.8583,-17.71653 8.8582,-17.71654 -17.7165,0 -17.7164,0 8.8582,17.71654 z m -17.7165,-35.43307 -8.8583,17.71653 -8.8583,17.71654 17.7166,0 17.7165,0 -8.8583,-17.71654 z m 35.4331,0 8.8583,-17.71653 8.8582,-17.71654 -17.7165,0 -17.7164,0 8.8582,17.71654 z m -17.7166,-35.43307 -8.8583,17.71653 -8.8583,17.71654 17.7166,0 17.7165,0 -8.8583,-17.71654 z m 53.1496,-106.29921 -8.8583,17.71653 -8.8583,17.71654 17.7166,0 17.7165,0 -8.8583,-17.71654 z m -1e-4,70.86614 8.8583,-17.71653 8.8582,-17.71654 -17.7165,0 -17.7165,0 8.8582,17.71654 z m 17.7166,-35.43307 8.8583,-17.71653 8.8582,-17.71654 -17.7165,0 -17.7165,0 8.8582,17.71654 z m -35.433,70.86614 8.8583,-17.71653 8.8582,-17.71654 -17.7165,0 -17.7164,0 8.8582,17.71654 z m 35.4331,-141.73228 -8.8583,17.71653 -8.8583,17.71654 17.7166,0 17.7165,0 -8.8583,-17.71654 z m -35.4331,70.86614 -8.8582,17.71653 -8.8583,17.71654 17.7165,0 17.7165,0 -8.8583,-17.71654 z m -17.7164,35.43312 -8.8583,17.71653 -8.8583,17.71654 17.7166,0 17.7164,0 -8.8582,-17.71654 z m -53.1498,106.29916 8.8583,-17.71653 8.8582,-17.71654 -17.7165,0 -17.7164,0 8.8582,17.71654 z m -17.7165,-35.43307 -8.8583,17.71653 -8.8583,17.71654 17.7166,0 17.7165,0 -8.8583,-17.71654 z m 35.4331,0 8.8583,-17.71653 8.8582,-17.71654 -17.7165,0 -17.7164,0 8.8582,17.71654 z m -17.7166,-35.43307 -8.8583,17.71653 -8.8583,17.71654 17.7166,0 17.7165,0 -8.8583,-17.71654 z m 53.1496,-106.29921 -8.8583,17.71653 -8.8583,17.71654 17.7166,0 17.7165,0 -8.8583,-17.71654 z m -17.7165,-35.43307 -8.8583,17.71653 -8.8583,17.71654 17.7166,0 17.7165,0 -8.8583,-17.71654 z m 17.7164,106.29921 8.8583,-17.71653 8.8582,-17.71654 -17.7165,0 -17.7165,0 8.8582,17.71654 z m 35.4331,-70.86614 8.8583,-17.71653 8.8582,-17.71654 -17.7165,0 -17.7165,0 8.8582,17.71654 z m -17.7165,35.43307 8.8583,-17.71653 8.8582,-17.71654 -17.7165,0 -17.7165,0 8.8582,17.71654 z m -35.433,0 8.8583,-17.71653 8.8582,-17.71654 -17.7165,0 -17.7165,0 8.8582,17.71654 z m 17.7164,-35.43307 8.8583,-17.71653 8.8582,-17.71654 -17.7165,0 -17.7165,0 8.8582,17.71654 z m -35.433,0 8.8583,-17.71653 8.8582,-17.71654 -17.7165,0 -17.7165,0 8.8582,17.71654 z m -70.8661,0 8.8583,-17.71653 8.8582,-17.71654 -17.7165,0 -17.7165,0 8.8582,17.71654 z m 0,0 -8.8583,17.71653 -8.8583,17.71654 17.7166,0 17.7165,0 -8.8583,-17.71654 z m 17.7167,-35.43307 -8.8583,17.71653 -8.8583,17.71654 17.7166,0 17.7165,0 -8.8583,-17.71654 z m 17.7166,35.43307 8.8583,-17.71653 8.8582,-17.71654 -17.7165,0 -17.7165,0 8.8582,17.71654 z m -17.7166,35.43307 8.8583,-17.71653 8.8582,-17.71654 -17.7165,0 -17.7165,0 8.8582,17.71654 z m -17.7167,35.43307 8.8583,-17.71653 8.8582,-17.71654 -17.7165,0 -17.7165,0 8.8582,17.71654 z m 0,0 -8.8583,17.71653 -8.8583,17.71654 17.7166,0 17.7165,0 -8.8583,-17.71654 z m 17.7167,-35.43307 -8.8583,17.71653 -8.8583,17.71654 17.7166,0 17.7165,0 -8.8583,-17.71654 z m 0,70.86614 8.8583,-17.71653 8.8582,-17.71654 -17.7165,0 -17.7165,0 8.8582,17.71654 z m 35.4331,-141.73228 -8.8583,17.71653 -8.8583,17.71654 17.7166,0 17.7165,0 -8.8583,-17.71654 z m 0,70.86614 8.8583,-17.71653 8.8582,-17.71654 -17.7165,0 -17.7165,0 8.8582,17.71654 z m 17.7165,-35.43307 -8.8583,17.71653 -8.8583,17.71654 17.7166,0 17.7164,0 -8.8582,-17.71654 z m -35.433,0 -8.8583,17.71653 -8.8583,17.71654 17.7166,0 17.7165,0 -8.8583,-17.71654 z m 53.1494,106.29921 8.8583,-17.71653 8.8582,-17.71654 -17.7165,0 -17.7164,0 8.8582,17.71654 z m 35.4331,-141.73228 -8.8583,17.71653 -8.8583,17.71654 17.7166,0 17.7165,0 -8.8583,-17.71654 z m -53.1495,106.29921 8.8583,-17.71653 8.8581,-17.71654 -17.7164,0 -17.7165,0 8.8582,17.71654 z m 17.7164,-35.43307 -8.8582,17.71653 -8.8583,17.71654 17.7165,0 17.7165,0 -8.8583,-17.71654 z m -35.4329,70.86614 8.8583,-17.71653 8.8582,-17.71654 -17.7165,0 -17.7165,0 8.8582,17.71654 z m 17.7165,-35.43302 -8.8583,17.71653 -8.8583,17.71654 17.7166,0 17.7164,0 -8.8582,-17.71654 z m -35.433,-5e-5 8.8583,-17.71653 8.8582,-17.71654 -17.7165,0 -17.7165,0 8.8582,17.71654 z m 17.7165,-35.43307 -8.8583,17.71653 -8.8583,17.71654 17.7166,0 17.7165,0 -8.8583,-17.71654 z m -17.7165,35.43312 -8.8583,17.71653 -8.8583,17.71654 17.7166,0 17.7165,0 -8.8583,-17.71654 z" />
  </g>
</svg>
